<?xml version="1.0" encoding="UTF-8" standalone="no"?>
<svg
   version="1.1"
   id="svg2"
   xml:space="preserve"
   width="110.18997"
   height="208.50752"
   viewBox="0 0 110.18997 208.50752"
   sodipodi:docname="serinty.svg"
   inkscape:version="1.1.2 (0a00cf5339, 2022-02-04)"
   inkscape:export-filename="/home/sven/design/logo/serinty_logo.png"
   inkscape:export-xdpi="200"
   inkscape:export-ydpi="200"
   xmlns:inkscape="http://www.inkscape.org/namespaces/inkscape"
   xmlns:sodipodi="http://sodipodi.sourceforge.net/DTD/sodipodi-0.dtd"
   xmlns:xlink="http://www.w3.org/1999/xlink"
   xmlns="http://www.w3.org/2000/svg"
   xmlns:svg="http://www.w3.org/2000/svg"
   xmlns:rdf="http://www.w3.org/1999/02/22-rdf-syntax-ns#"
   xmlns:cc="http://creativecommons.org/ns#"
   xmlns:dc="http://purl.org/dc/elements/1.1/"><metadata
     id="metadata8"><rdf:RDF><cc:Work
         rdf:about=""><dc:format>image/svg+xml</dc:format><dc:type
           rdf:resource="http://purl.org/dc/dcmitype/StillImage" /><dc:title /></cc:Work></rdf:RDF></metadata><defs
     id="defs6"><inkscape:path-effect
       effect="fillet_chamfer"
       id="path-effect3868"
       is_visible="true"
       lpeversion="1"
       satellites_param="F,0,0,1,0,0,0,1 @ F,0,0,1,0,0,0,1 @ F,0,0,1,0,0,0,1 @ F,0,1,1,0,5,0,1 @ F,0,1,1,0,5,0,1 @ F,0,0,1,0,0,0,1 @ F,0,0,1,0,0,0,1 @ F,0,0,1,0,0,0,1 @ F,0,0,1,0,0,0,1 @ F,0,0,1,0,0,0,1 @ F,0,0,1,0,0,0,1 @ F,0,0,1,0,0,0,1 @ F,0,0,1,0,0,0,1 @ F,0,0,1,0,0,0,1 @ F,0,0,1,0,0,0,1 @ F,0,0,1,0,0,0,1 @ F,0,0,1,0,0,0,1 @ F,0,0,1,0,0,0,1 @ F,0,0,1,0,0,0,1 @ F,0,0,1,0,0,0,1 @ F,0,0,1,0,0,0,1 @ F,0,0,1,0,0,0,1 @ F,0,1,1,0,5,0,1 @ F,0,1,1,0,5,0,1 @ F,0,0,1,0,0,0,1 @ F,0,0,1,0,0,0,1 @ F,0,0,1,0,0,0,1 @ F,0,0,1,0,0,0,1 @ F,0,1,1,0,5,0,1 @ F,0,1,1,0,5,0,1 @ F,0,0,1,0,0,0,1 @ F,0,0,1,0,0,0,1 @ F,0,0,1,0,0,0,1 @ F,0,0,1,0,0,0,1 @ F,0,0,1,0,0,0,1 @ F,0,0,1,0,0,0,1 @ F,0,0,1,0,0,0,1 @ F,0,0,1,0,0,0,1 @ F,0,0,1,0,0,0,1 @ F,0,0,1,0,0,0,1 @ F,0,0,1,0,0,0,1 @ F,0,0,1,0,0,0,1 @ F,0,0,1,0,0,0,1 @ F,0,0,1,0,0,0,1 @ F,0,0,1,0,0,0,1"
       unit="px"
       method="auto"
       mode="F"
       radius="5"
       chamfer_steps="1"
       flexible="false"
       use_knot_distance="true"
       apply_no_radius="true"
       apply_with_radius="true"
       only_selected="true"
       hide_knots="false" /><inkscape:path-effect
       effect="fillet_chamfer"
       id="path-effect2591"
       is_visible="true"
       lpeversion="1"
       satellites_param="F,0,1,1,0,0,0,1 @ F,0,0,1,0,0,0,1 @ F,0,0,1,0,0,0,1 @ F,0,0,1,0,0,0,1 @ F,0,0,1,0,0,0,1 @ F,0,0,1,0,0,0,1 @ F,0,0,1,0,0,0,1 @ F,0,0,1,0,0,0,1 @ F,0,0,1,0,0,0,1 @ F,0,0,1,0,0,0,1 @ F,0,0,1,0,0,0,1 @ F,0,1,1,0,2,0,1 @ F,0,1,1,0,2,0,1 @ F,0,0,1,0,0,0,1 @ F,0,0,1,0,0,0,1 @ F,0,0,1,0,0,0,1 @ F,0,0,1,0,0,0,1 @ F,0,0,1,0,0,0,1 @ F,0,0,1,0,0,0,1 @ F,0,0,1,0,0,0,1 @ F,0,0,1,0,0,0,1 @ F,0,1,1,0,2,0,1 @ F,0,1,1,0,2,0,1 @ F,0,0,1,0,0,0,1 @ F,0,0,1,0,0,0,1 @ F,0,1,1,0,2,0,1"
       unit="px"
       method="auto"
       mode="F"
       radius="2"
       chamfer_steps="1"
       flexible="false"
       use_knot_distance="true"
       apply_no_radius="true"
       apply_with_radius="true"
       only_selected="true"
       hide_knots="false" /><inkscape:path-effect
       effect="fillet_chamfer"
       id="path-effect1464"
       is_visible="true"
       lpeversion="1"
       satellites_param="F,0,0,1,0,0,0,2 @ F,0,0,1,0,0,0,1 @ F,0,0,1,0,0,0,1 @ F,0,0,1,0,0,0,1 @ F,0,0,1,0,0,0,1 @ F,0,0,1,0,0,0,1 @ F,0,0,1,0,0,0,1 @ F,0,0,1,0,0,0,1 @ F,0,0,1,0,0,0,1 @ F,0,0,1,0,0,0,1 @ F,0,0,1,0,0,0,1 @ F,0,0,1,0,2,0,1 @ F,0,0,1,0,2,0,1 @ F,0,0,1,0,0,0,1 @ F,0,0,1,0,0,0,1 @ F,0,0,1,0,0,0,1 @ F,0,0,1,0,0,0,1 @ F,0,0,1,0,0,0,1 @ F,0,0,1,0,0,0,1 @ F,0,0,1,0,0,0,1 @ F,0,0,1,0,0,0,1 @ F,0,0,1,0,2,0,1 @ F,0,0,1,0,2,0,1 @ F,0,0,1,0,0,0,1 @ F,0,0,1,0,0,0,1 @ F,0,1,1,0,0,0,2"
       unit="px"
       method="auto"
       mode="F"
       radius="0"
       chamfer_steps="1"
       flexible="false"
       use_knot_distance="true"
       apply_no_radius="true"
       apply_with_radius="true"
       only_selected="true"
       hide_knots="false" /><inkscape:path-effect
       effect="fillet_chamfer"
       id="path-effect1120"
       is_visible="true"
       lpeversion="1"
       satellites_param="F,0,1,1,0,0,0,2 @ F,0,0,1,0,0,0,1 @ F,0,0,1,0,0,0,1 @ F,0,0,1,0,0,0,1 @ F,0,0,1,0,0,0,1 @ F,0,0,1,0,0,0,1 @ F,0,0,1,0,0,0,1 @ F,0,0,1,0,0,0,1 @ F,0,0,1,0,0,0,1 @ F,0,0,1,0,0,0,1 @ F,0,0,1,0,0,0,1 @ F,0,0,1,0,0,0,1 @ F,0,0,1,0,0,0,1 @ F,0,0,1,0,0,0,1 @ F,0,0,1,0,0,0,1 @ F,0,0,1,0,0,0,1 @ F,0,0,1,0,0,0,1 @ F,0,0,1,0,0,0,1 @ F,0,0,1,0,0,0,1 @ F,0,0,1,0,0,0,1 @ F,0,0,1,0,0,0,1 @ F,0,0,1,0,0,0,1 @ F,0,0,1,0,0,0,1 @ F,0,0,1,0,0,0,1 @ F,0,0,1,0,0,0,1 @ F,0,1,1,0,0,0,2"
       unit="px"
       method="auto"
       mode="F"
       radius="3"
       chamfer_steps="2"
       flexible="false"
       use_knot_distance="true"
       apply_no_radius="true"
       apply_with_radius="true"
       only_selected="true"
       hide_knots="false" /><inkscape:path-effect
       effect="clone_original"
       id="path-effect2915"
       is_visible="true"
       lpeversion="1"
       linkeditem=""
       method="d"
       attributes=""
       css_properties=""
       allow_transforms="true" /><linearGradient
       inkscape:collect="always"
       id="linearGradient2907"><stop
         style="stop-color:#004235;stop-opacity:1;"
         offset="0"
         id="stop2903" /><stop
         style="stop-color:#00ffcd;stop-opacity:0"
         offset="1"
         id="stop2905" /></linearGradient><linearGradient
       inkscape:collect="always"
       xlink:href="#linearGradient2907"
       id="linearGradient2909"
       x1="486.13327"
       y1="285.77289"
       x2="568.4353"
       y2="294.93484"
       gradientUnits="userSpaceOnUse"
       gradientTransform="translate(-29.594688,-8.8380698)" /><filter
       inkscape:collect="always"
       style="color-interpolation-filters:sRGB"
       id="filter2911"
       x="-0.00014057499"
       width="1.0002811"
       y="-7.4280229e-05"
       height="1.0001486"><feGaussianBlur
         inkscape:collect="always"
         stdDeviation="0.0048392766"
         id="feGaussianBlur2913" /></filter><filter
       inkscape:collect="always"
       style="color-interpolation-filters:sRGB"
       id="filter2911-7"
       x="-0.00015146643"
       width="1.0003029"
       y="-7.724279e-05"
       height="1.0001545"><feGaussianBlur
         inkscape:collect="always"
         stdDeviation="0.0048392766"
         id="feGaussianBlur2913-5" /></filter><inkscape:path-effect
       effect="fillet_chamfer"
       id="path-effect3868-3"
       is_visible="true"
       lpeversion="1"
       satellites_param="F,0,0,1,0,0,0,1 @ F,0,0,1,0,0,0,1 @ F,0,0,1,0,0,0,1 @ F,0,1,1,0,5,0,1 @ F,0,1,1,0,5,0,1 @ F,0,0,1,0,0,0,1 @ F,0,0,1,0,0,0,1 @ F,0,0,1,0,0,0,1 @ F,0,0,1,0,0,0,1 @ F,0,0,1,0,0,0,1 @ F,0,0,1,0,0,0,1 @ F,0,0,1,0,0,0,1 @ F,0,0,1,0,0,0,1 @ F,0,0,1,0,0,0,1 @ F,0,0,1,0,0,0,1 @ F,0,0,1,0,0,0,1 @ F,0,0,1,0,0,0,1 @ F,0,0,1,0,0,0,1 @ F,0,0,1,0,0,0,1 @ F,0,0,1,0,0,0,1 @ F,0,0,1,0,0,0,1 @ F,0,0,1,0,0,0,1 @ F,0,1,1,0,5,0,1 @ F,0,1,1,0,5,0,1 @ F,0,0,1,0,0,0,1 @ F,0,0,1,0,0,0,1 @ F,0,0,1,0,0,0,1 @ F,0,0,1,0,0,0,1 @ F,0,1,1,0,5,0,1 @ F,0,1,1,0,5,0,1 @ F,0,0,1,0,0,0,1 @ F,0,0,1,0,0,0,1 @ F,0,0,1,0,0,0,1 @ F,0,0,1,0,0,0,1 @ F,0,0,1,0,0,0,1 @ F,0,0,1,0,0,0,1 @ F,0,0,1,0,0,0,1 @ F,0,0,1,0,0,0,1 @ F,0,0,1,0,0,0,1 @ F,0,0,1,0,0,0,1 @ F,0,0,1,0,0,0,1 @ F,0,0,1,0,0,0,1 @ F,0,0,1,0,0,0,1 @ F,0,0,1,0,0,0,1 @ F,0,0,1,0,0,0,1"
       unit="px"
       method="auto"
       mode="F"
       radius="5"
       chamfer_steps="1"
       flexible="false"
       use_knot_distance="true"
       apply_no_radius="true"
       apply_with_radius="true"
       only_selected="true"
       hide_knots="false" /></defs><sodipodi:namedview
     pagecolor="#ffffff"
     bordercolor="#666666"
     borderopacity="1"
     objecttolerance="10"
     gridtolerance="10"
     guidetolerance="10"
     inkscape:pageopacity="0"
     inkscape:pageshadow="2"
     inkscape:window-width="1857"
     inkscape:window-height="1044"
     id="namedview4"
     showgrid="false"
     inkscape:zoom="3.0334881"
     inkscape:cx="181.96874"
     inkscape:cy="100.04984"
     inkscape:window-x="63"
     inkscape:window-y="0"
     inkscape:window-maximized="1"
     inkscape:current-layer="g10"
     inkscape:document-rotation="0"
     inkscape:pagecheckerboard="0" /><g
     inkscape:groupmode="layer"
     id="layer1"
     inkscape:label="logoSolid" /><g
     id="g10"
     inkscape:groupmode="layer"
     inkscape:label="ink_ext_XXXXXX"
     transform="matrix(1.3333333,0,0,-1.3333333,-450.41506,480.00238)"><g
       id="g7471"
       transform="translate(-116.14917,4.4446108)"><path
         id="path14-3-5"
         style="mix-blend-mode:normal;fill:#004235;fill-opacity:1;fill-rule:nonzero;stroke:none;stroke-width:0.09975;stroke-miterlimit:4;stroke-dasharray:none;paint-order:normal;filter:url(#filter2911-7)"
         d="m 493.91158,204.95802 c -11.07957,0.18973 -21.89733,5.56828 -28.83972,14.18603 -5.82262,7.14914 -8.89796,16.44511 -8.53748,25.65499 0.002,11.22699 -0.11928,19.13242 -0.048,30.35786 0.17085,1.4258 1.80144,3.4373 2.7158,2.16763 0.82537,-1.17605 0.89947,-0.51005 1.02483,-1.83838 0.0107,-11.52819 -0.0631,-23.05869 0.0811,-34.5853 0.64806,-10.95622 6.98217,-21.33928 16.31829,-27.07383 7.95715,-4.97247 17.97769,-6.46227 27.04126,-4.03802 10.66214,2.78353 19.76536,10.96544 23.55517,21.32834 2.86772,7.58439 2.91466,16.18705 0.20974,23.82276 -1.66263,4.68214 -4.75237,8.78771 -8.65111,11.84635 -5.94942,4.70912 -13.19773,7.29395 -20.27907,9.76853 -8.87317,3.05461 -18.05165,5.68746 -26.09662,10.68039 -6.24571,3.87175 -11.41965,9.71858 -13.7486,16.75609 -1.11964,3.19204 -1.7603,6.72353 -2.00335,9.98024 -0.31635,3.89349 -0.041,8.02235 0.91641,11.89662 1.41717,6.02327 4.37239,11.6599 8.42929,16.32408 0.51026,0.57269 1.22705,1.35891 1.85351,1.98047 7.92328,7.93457 19.45865,12.07878 30.6202,10.95926 7.51346,-0.71909 14.78297,-3.72332 20.61418,-8.5159 0.73996,-0.60532 1.65761,-1.4116 2.41873,-2.15298 7.6592,-7.37863 11.98516,-18.05978 11.61455,-28.68921 -10e-4,-11.33733 0.0474,-22.67693 -0.0227,-34.01284 -0.17444,-1.43001 -2.30818,-2.27674 -3.21367,-0.99068 -0.81195,1.1768 -0.33117,2.66372 -0.45606,3.9875 -0.0113,11.51841 0.063,23.03875 -0.0804,34.55583 -0.53616,9.11026 -4.97837,17.85112 -11.86332,23.81212 -5.09036,4.43962 -14.14818,7.85136 -20.83719,8.73809 0,0 0,0 0.0171,-1.84255 0.0331,-7.58887 0.008,-15.20872 0.0167,-22.80958 -0.0178,-7.63246 0.0206,-15.26773 -0.0332,-22.89844 -0.21433,-1.32377 -2.00964,-2.14146 -3.03125,-1.14648 -1.01519,0.95489 -0.52449,2.44989 -0.63868,3.6707 0,14.96849 10e-6,29.93698 0,44.90547 -4.59572,-0.60669 -9.22239,-1.55592 -13.37474,-3.69481 -9.18892,-4.44813 -16.17184,-13.17315 -18.45764,-23.12771 -1.64765,-7.13089 -1.06114,-14.78457 1.71454,-21.55967 2.25695,-5.33201 6.34712,-9.76171 11.2418,-12.79978 6.6969,-4.31623 14.37927,-6.67634 21.85572,-9.24294 8.02869,-2.69847 16.22495,-5.39362 23.28009,-10.2079 2.41598,-1.68419 4.63889,-3.65546 6.54688,-5.90235 0.33332,-0.40658 0.87565,-1.06375 1.25912,-1.60153 4.46501,-5.98712 6.09397,-13.6182 6.08814,-20.97184 -0.11769,-7.88936 -2.77556,-15.71058 -7.45078,-22.06335 -0.22737,-0.27982 -0.6822,-0.91535 -1.02167,-1.31833 -6.83755,-8.5599 -17.49043,-13.96445 -28.45694,-14.2748 -0.76354,-0.0376 -1.52682,-0.025 -2.29092,-0.0202 z"
         sodipodi:nodetypes="ccccccccccccccccccccccccccccccccccccccccccccccccc" /><path
         id="path14-3"
         style="mix-blend-mode:normal;fill:url(#linearGradient2909);fill-opacity:1;fill-rule:nonzero;stroke:none;stroke-width:0.09975;stroke-miterlimit:4;stroke-dasharray:none;paint-order:normal;filter:url(#filter2911)"
         d="m 496.82577,198.7673 c -11.44061,0.21628 -22.64499,5.52311 -30.1211,14.17578 -6.56634,7.51554 -10.30777,17.46687 -10.15391,27.46047 -0.0208,11.50911 -0.008,23.01852 -0.009,34.52782 -2.5e-4,2.76142 2.23708,4.99999 4.9985,4.99999 2.59643,0 4.70356,-2.23858 4.70375,-5 8.4e-4,-12.11504 -0.0316,-24.23068 0.0333,-36.34489 0.31429,-7.80187 3.7182,-15.39181 9.26044,-20.88034 3.564,-3.58945 8.01202,-6.28684 12.83844,-7.79821 0.56531,-0.17861 1.44138,-0.43101 2.13945,-0.59181 7.96865,-1.91345 16.67466,-0.60481 23.65985,3.70932 2.04441,1.23349 3.94079,2.70673 5.66359,4.35905 0.33001,0.33096 0.91665,0.90992 1.32198,1.36093 5.65297,6.13644 8.7168,14.57779 8.2294,22.91489 -0.29318,5.29077 -1.66624,10.69181 -4.93123,14.9598 -3.54798,4.82029 -8.89637,7.88979 -14.27603,10.26478 -10.84299,4.6746 -22.72333,7.14951 -33.23258,12.80558 -5.65683,2.99701 -10.80306,7.14577 -14.35924,12.51732 -3.97088,5.88824 -5.7249,13.01031 -6.01377,20.04114 -0.51009,11.25237 3.95128,22.60434 11.90217,30.57336 7.84332,8.0124 19.06881,12.58506 30.28265,12.27658 10.8593,-0.19694 21.53804,-4.93232 28.98996,-12.83219 7.26637,-7.59755 11.49445,-18.04939 11.38524,-28.57735 0.0205,-11.58578 0.007,-23.17195 0.009,-34.75797 2.5e-4,-2.76142 -2.2371,-4.99999 -4.99852,-4.99999 -2.59643,0 -4.70386,2.23858 -4.7041,5 -0.001,12.13666 0.0351,24.27392 -0.0371,36.40974 -0.0878,1.88169 -0.37546,3.98018 -0.8432,5.89787 -2.40318,10.16829 -10.20951,18.85749 -20.07281,22.31427 -1.8774,0.67913 -3.82288,1.16928 -5.79592,1.47187 v -43.51758 a 5,5 45 0 0 -5,-5 4.8528857,4.8528857 133.23565 0 0 -4.70117,5 v 43.5293 c -0.99274,-0.15182 -2.03843,-0.3692 -2.89495,-0.58917 -3.86638,-0.98099 -7.53192,-2.7212 -10.76716,-5.05146 -0.4444,-0.32843 -1.15286,-0.86204 -1.67335,-1.30189 -5.90714,-4.86235 -9.91824,-11.94637 -11.05322,-19.51256 -0.0598,-0.34947 -0.13753,-1.03916 -0.18359,-1.39258 -0.43919,-4.36641 -0.027,-8.82779 1.20045,-13.04054 1.3091,-4.45815 3.89785,-8.52645 7.4457,-11.53606 5.16077,-4.43497 11.58953,-6.99012 17.91827,-9.26762 9.61788,-3.44476 19.66404,-6.05923 28.49092,-11.36214 6.51755,-3.8334 12.05839,-9.59938 14.84727,-16.69792 1.78831,-4.34562 2.54832,-9.04092 2.80247,-13.709 0.36645,-9.19644 -2.50416,-18.47098 -7.95042,-25.88769 -5.97863,-8.21762 -15.08415,-14.07721 -25.04526,-16.09757 -3.05619,-0.63851 -6.18507,-0.89306 -9.3051,-0.82333 z"
         inkscape:path-effect="#path-effect3868"
         inkscape:original-d="m 496.82577,198.7673 c -11.44061,0.21628 -22.64499,5.52311 -30.1211,14.17578 -6.56634,7.51554 -10.30777,17.46687 -10.15391,27.46047 -0.0238,13.17575 -0.003,26.35189 -0.0101,39.52781 3.23372,0 6.46745,0 9.70117,0 0.0142,-13.78149 -0.038,-27.56412 0.0359,-41.34489 0.31429,-7.80187 3.7182,-15.39181 9.26044,-20.88034 3.564,-3.58945 8.01202,-6.28684 12.83844,-7.79821 0.56531,-0.17861 1.44138,-0.43101 2.13945,-0.59181 7.96865,-1.91345 16.67466,-0.60481 23.65985,3.70932 2.04441,1.23349 3.94079,2.70673 5.66359,4.35905 0.33001,0.33096 0.91665,0.90992 1.32198,1.36093 5.65297,6.13644 8.7168,14.57779 8.2294,22.91489 -0.29318,5.29077 -1.66624,10.69181 -4.93123,14.9598 -3.54798,4.82029 -8.89637,7.88979 -14.27603,10.26478 -10.84299,4.6746 -22.72333,7.14951 -33.23258,12.80558 -5.65683,2.99701 -10.80306,7.14577 -14.35924,12.51732 -3.97088,5.88824 -5.7249,13.01031 -6.01377,20.04114 -0.51009,11.25237 3.95128,22.60434 11.90217,30.57336 7.84332,8.0124 19.06881,12.58506 30.28265,12.27658 10.8593,-0.19694 21.53804,-4.93232 28.98996,-12.83219 7.26637,-7.59755 11.49445,-18.04939 11.38524,-28.57735 0.0234,-13.25241 0.003,-26.50534 0.01,-39.75796 -3.23372,0 -6.46745,0 -9.70117,0 -0.016,13.80311 0.0421,27.60736 -0.04,41.40974 -0.0878,1.88169 -0.37546,3.98018 -0.8432,5.89787 -2.40318,10.16829 -10.20951,18.85749 -20.07281,22.31427 -1.8774,0.67913 -3.82288,1.16928 -5.79592,1.47187 0,-16.17253 0,-32.34505 0,-48.51758 -3.23373,0 -6.46745,0 -9.70117,0 0,16.17643 0,32.35287 0,48.5293 -0.99274,-0.15182 -2.03843,-0.3692 -2.89495,-0.58917 -3.86638,-0.98099 -7.53192,-2.7212 -10.76716,-5.05146 -0.4444,-0.32843 -1.15286,-0.86204 -1.67335,-1.30189 -5.90714,-4.86235 -9.91824,-11.94637 -11.05322,-19.51256 -0.0598,-0.34947 -0.13753,-1.03916 -0.18359,-1.39258 -0.43919,-4.36641 -0.027,-8.82779 1.20045,-13.04054 1.3091,-4.45815 3.89785,-8.52645 7.4457,-11.53606 5.16077,-4.43497 11.58953,-6.99012 17.91827,-9.26762 9.61788,-3.44476 19.66404,-6.05923 28.49092,-11.36214 6.51755,-3.8334 12.05839,-9.59938 14.84727,-16.69792 1.78831,-4.34562 2.54832,-9.04092 2.80247,-13.709 0.36645,-9.19644 -2.50416,-18.47098 -7.95042,-25.88769 -5.97863,-8.21762 -15.08415,-14.07721 -25.04526,-16.09757 -3.05619,-0.63851 -6.18507,-0.89306 -9.3051,-0.82333 z" /></g></g></svg>
